<svg width="16" height="16" viewBox="0 0 16 16" fill="none" xmlns="http://www.w3.org/2000/svg">
<path d="M13.333 4.0013H7.99967L6.66634 2.66797H2.66634C1.93301 2.66797 1.33301 3.26797 1.33301 4.0013V12.0013C1.33301 12.7346 1.93301 13.3346 2.66634 13.3346H13.333C14.0663 13.3346 14.6663 12.7346 14.6663 12.0013V5.33464C14.6663 4.6013 14.0663 4.0013 13.333 4.0013ZM13.333 12.0013H2.66634V4.0013H6.11301L7.44634 5.33464H13.333V12.0013ZM8.10634 8.0013H5.33301V9.33464H8.10634L7.04634 10.3946L7.99301 11.3346L10.6663 8.67464L7.99301 6.0013L7.05301 6.9413L8.10634 8.0013Z" fill="white"/>
</svg>
