<svg width="20" height="20" viewBox="0 0 20 20" fill="none" xmlns="http://www.w3.org/2000/svg">
<path d="M6.66658 11.2859L7.84992 10.1026L9.17492 11.4276L9.17492 2.11928L10.8249 2.11928L10.8249 11.4276L12.1499 10.1026L13.3333 11.2859L9.99992 14.6193L6.66658 11.2859ZM16.6666 8.33368V17.5004C16.6666 18.417 15.9166 19.167 14.9999 19.167H4.99992C4.07492 19.167 3.33325 18.417 3.33325 17.5004V8.33368C3.33325 7.40868 4.07492 6.66702 4.99992 6.66702H7.49992V8.33368H4.99992V17.5004H14.9999V8.33368H12.4999V6.66702H14.9999C15.9166 6.66702 16.6666 7.40868 16.6666 8.33368Z" fill="white"/>
</svg>
