<svg width="20" height="20" viewBox="0 0 20 20" fill="none" xmlns="http://www.w3.org/2000/svg">
<path d="M9.99992 6.66732C10.9166 6.66732 11.6666 5.91732 11.6666 5.00065C11.6666 4.08398 10.9166 3.33398 9.99992 3.33398C9.08325 3.33398 8.33325 4.08398 8.33325 5.00065C8.33325 5.91732 9.08325 6.66732 9.99992 6.66732ZM9.99992 8.33398C9.08325 8.33398 8.33325 9.08398 8.33325 10.0007C8.33325 10.9173 9.08325 11.6673 9.99992 11.6673C10.9166 11.6673 11.6666 10.9173 11.6666 10.0007C11.6666 9.08398 10.9166 8.33398 9.99992 8.33398ZM9.99992 13.334C9.08325 13.334 8.33325 14.084 8.33325 15.0007C8.33325 15.9173 9.08325 16.6673 9.99992 16.6673C10.9166 16.6673 11.6666 15.9173 11.6666 15.0007C11.6666 14.084 10.9166 13.334 9.99992 13.334Z" fill="white"/>
</svg>
