<svg width="16" height="16" viewBox="0 0 16 16" fill="none" xmlns="http://www.w3.org/2000/svg">
<path d="M13.2268 14.0391H6.98438V14.6381H13.2268V14.0391Z" fill="white"/>
<path d="M13.2294 14.2773H3V14.9987H13.2294V14.2773Z" fill="white"/>
<path d="M13.2268 12.9531H6.98438V13.5521H13.2268V12.9531Z" fill="white"/>
<path d="M13.2294 13.1914H3V13.9128H13.2294V13.1914Z" fill="white"/>
<path d="M13.2268 11.8672H6.98438V12.4662H13.2268V11.8672Z" fill="white"/>
<path d="M13.2294 12.1055H3V12.8269H13.2294V12.1055Z" fill="white"/>
<path d="M13.2268 10.7812H6.98438V11.3802H13.2268V10.7812Z" fill="white"/>
<path d="M13.2294 11.0195H3V11.7408H13.2294V11.0195Z" fill="white"/>
<path d="M13.2268 9.69531H6.98438V10.2943H13.2268V9.69531Z" fill="white"/>
<path d="M13.2294 9.93359H3V10.655H13.2294V9.93359Z" fill="white"/>
<path d="M13.2268 8.60547H6.98438V9.20445H13.2268V8.60547Z" fill="white"/>
<path d="M13.2294 8.84375H3V9.56513H13.2294V8.84375Z" fill="white"/>
<path d="M13.2268 7.51953H6.98438V8.11852H13.2268V7.51953Z" fill="white"/>
<path d="M13.2294 7.75781H3V8.47918H13.2294V7.75781Z" fill="white"/>
<path d="M5.92562 6.67188H3.67188V7.39325H5.92562V6.67188Z" fill="white"/>
<path d="M12.4178 6.43359H11.0078V7.03258H12.4178V6.43359Z" fill="white"/>
<path d="M5.92562 6.43359H4.51562V7.03258H5.92562V6.43359Z" fill="white"/>
<path d="M12.4178 6.67188H10.1641V7.39325H12.4178V6.67188Z" fill="white"/>
<path d="M5.92562 5.58594H3.67188V6.30731H5.92562V5.58594Z" fill="white"/>
<path d="M12.4178 5.34766H11.0078V5.94665H12.4178V5.34766Z" fill="white"/>
<path d="M5.92562 5.34766H4.51562V5.94665H5.92562V5.34766Z" fill="white"/>
<path d="M12.4178 5.58594H10.1641V6.30731H12.4178V5.58594Z" fill="white"/>
<path d="M5.92562 4.5H3.67188V5.22137H5.92562V4.5Z" fill="white"/>
<path d="M12.4178 4.26172H11.0078V4.86071H12.4178V4.26172Z" fill="white"/>
<path d="M5.92562 4.26172H4.51562V4.86071H5.92562V4.26172Z" fill="white"/>
<path d="M12.4178 4.5H10.1641V5.22137H12.4178V4.5Z" fill="white"/>
<path d="M6.37875 3.41406H4.125V4.13543H6.37875V3.41406Z" fill="white"/>
<path d="M12.0194 3.17188H10.6094V3.77086H12.0194V3.17188Z" fill="white"/>
<path d="M6.37093 3.17188H4.96094V3.77086H6.37093V3.17188Z" fill="white"/>
<path d="M12.0194 3.41406H9.76562V4.13543H12.0194V3.41406Z" fill="white"/>
<path d="M11.1812 2.08594H6.92969V2.68493H11.1812V2.08594Z" fill="white"/>
<path d="M11.1792 2.32422H4.96094V3.04559H11.1792V2.32422Z" fill="white"/>
<path d="M10.2788 1H7.16406V1.59899H10.2788V1Z" fill="white"/>
<path d="M10.2752 1.23828H5.6875V1.95965H10.2752V1.23828Z" fill="white"/>
</svg>
