<svg width="16" height="16" viewBox="0 0 16 16" fill="none" xmlns="http://www.w3.org/2000/svg">
<path d="M7.9987 1.33301C4.3187 1.33301 1.33203 4.31967 1.33203 7.99967C1.33203 11.6797 4.3187 14.6663 7.9987 14.6663C11.6787 14.6663 14.6654 11.6797 14.6654 7.99967C14.6654 4.31967 11.6787 1.33301 7.9987 1.33301ZM2.66536 7.99967C2.66536 7.59301 2.7187 7.19301 2.80536 6.81301L5.99203 9.99967V10.6663C5.99203 11.3997 6.59203 11.9997 7.32536 11.9997V13.2863C4.70536 12.953 2.66536 10.713 2.66536 7.99967ZM11.9254 11.5997C11.752 11.0597 11.2587 10.6663 10.6587 10.6663H9.99203V8.66634C9.99203 8.29967 9.69203 7.99967 9.32536 7.99967H5.32536V6.66634H6.6587C7.02536 6.66634 7.32536 6.36634 7.32536 5.99967V4.66634H8.6587C9.39203 4.66634 9.99203 4.06634 9.99203 3.33301V3.05967C11.9454 3.84634 13.332 5.76634 13.332 7.99967C13.332 9.38634 12.792 10.653 11.9254 11.5997Z" fill="white"/>
</svg>
