<svg width="24" height="24" viewBox="0 0 24 24" fill="none" xmlns="http://www.w3.org/2000/svg">
<path d="M15.9961 17.0154V11.0054C15.9961 10.4554 15.5461 10.0054 14.9961 10.0054C14.4461 10.0054 13.9961 10.4554 13.9961 11.0054V17.0154H12.2061C11.7561 17.0154 11.5361 17.5554 11.8561 17.8654L14.6461 20.6454C14.8461 20.8354 15.1561 20.8354 15.3561 20.6454L18.1461 17.8654C18.4661 17.5554 18.2361 17.0154 17.7961 17.0154H15.9961ZM8.64612 3.35539L5.85612 6.14539C5.53612 6.45539 5.75612 6.99539 6.20612 6.99539H7.99612V13.0054C7.99612 13.5554 8.44612 14.0054 8.99612 14.0054C9.54612 14.0054 9.99612 13.5554 9.99612 13.0054V6.99539H11.7861C12.2361 6.99539 12.4561 6.45539 12.1361 6.14539L9.34612 3.35539C9.15612 3.16539 8.83612 3.16539 8.64612 3.35539Z" fill="white"/>
</svg>
