<svg width="24" height="24" viewBox="0 0 24 24" fill="none" xmlns="http://www.w3.org/2000/svg">
<path d="M12.0098 4V1L8.00977 5L12.0098 9V6C15.3198 6 18.0098 8.69 18.0098 12C18.0098 13.01 17.7598 13.97 17.3098 14.8L18.7698 16.26C19.5498 15.03 20.0098 13.57 20.0098 12C20.0098 7.58 16.4298 4 12.0098 4ZM12.0098 18C8.69977 18 6.00977 15.31 6.00977 12C6.00977 10.99 6.25977 10.03 6.70977 9.2L5.24977 7.74C4.46977 8.97 4.00977 10.43 4.00977 12C4.00977 16.42 7.58977 20 12.0098 20V23L16.0098 19L12.0098 15V18Z" fill="white"/>
</svg>
