<svg width="24" height="24" viewBox="0 0 24 24" fill="none" xmlns="http://www.w3.org/2000/svg">
<path d="M19 5V10.6797C18.38 10.3897 17.71 10.1801 17 10.0801V6.38965L11 4.13965L5 6.38965V11.0898C5 14.4198 6.76013 17.5296 9.33008 19.1396C9.68008 20.2196 10.2901 21.2005 11.0801 21.9805C11.0501 21.9805 11.03 21.99 11 22C6.41 20.85 3 16.1398 3 11.0898V5L11 2L19 5ZM15.9951 12C18.7601 12.0001 21 14.24 21 17C21 19.76 18.7601 21.9999 15.9951 22C13.2351 22 11 19.76 11 17C11 14.24 13.2351 12 15.9951 12ZM15.5 14.5V17.2051L17.6445 19.3555L18.3555 18.6504L16.5 16.7949V14.5H15.5Z" fill="white"/>
</svg>
