<svg width="24" height="24" viewBox="0 0 24 24" fill="none" xmlns="http://www.w3.org/2000/svg">
<path d="M19 5V10.6797C18.09 10.2497 17.08 10 16 10C12.13 10 9 13.13 9 17C9 18.95 9.80008 20.7105 11.0801 21.9805C11.0501 21.9805 11.03 21.99 11 22C6.41 20.85 3 16.1398 3 11.0898V5L11 2L19 5ZM15.9951 11.8984C18.7601 11.8985 21 14.1385 21 16.8984C21 19.6584 18.7601 21.8984 15.9951 21.8984C13.2351 21.8984 11 19.6584 11 16.8984C11 14.1384 13.2351 11.8984 15.9951 11.8984ZM15.5 14.3984V17.1035L17.6445 19.2539L18.3555 18.5488L16.5 16.6934V14.3984H15.5Z" fill="white"/>
</svg>
